HIERARCHY
ROOT root
{
	OFFSET 0.000000 0.000000 0.000000
	CHANNELS 6 Xposition Yposition Zposition Zrotation Yrotation Xrotation
	JOINT lhip
	{
		OFFSET 0.058581 -0.082280 -0.017664
		CHANNELS 3 Zrotation Yrotation Xrotation
		JOINT lknee
		{
			OFFSET 0.043451 -0.386469 0.008037
			CHANNELS 3 Zrotation Yrotation Xrotation
			JOINT lankle
			{
				OFFSET -0.014790 -0.426874 -0.037428
				CHANNELS 3 Zrotation Yrotation Xrotation
				JOINT ltoe
				{
					OFFSET 0.041054 -0.060286 0.122042
					CHANNELS 3 Zrotation Yrotation Xrotation
					End Site
					{
						OFFSET 0.000000 0.000000 0.000000
					}
				}
			}
		}
	}
	JOINT rhip
	{
		OFFSET -0.060310 -0.090513 -0.013543
		CHANNELS 3 Zrotation Yrotation Xrotation
		JOINT rknee
		{
			OFFSET -0.043257 -0.383688 -0.004843
			CHANNELS 3 Zrotation Yrotation Xrotation
			JOINT rankle
			{
				OFFSET 0.019056 -0.420046 -0.034562
				CHANNELS 3 Zrotation Yrotation Xrotation
				JOINT rtoe
				{
					OFFSET -0.034840 -0.062106 0.130323
					CHANNELS 3 Zrotation Yrotation Xrotation
					End Site
					{
						OFFSET 0.000000 0.000000 0.000000
					}
				}
			}
		}
	}
	JOINT lowerback
	{
		OFFSET 0.004439 0.124404 -0.038385
		CHANNELS 3 Zrotation Yrotation Xrotation
		JOINT upperback
		{
			OFFSET 0.004488 0.137956 0.026820
			CHANNELS 3 Zrotation Yrotation Xrotation
			JOINT chest
			{
				OFFSET -0.002265 0.056032 0.002855
				CHANNELS 3 Zrotation Yrotation Xrotation
				JOINT lowerneck
				{
					OFFSET -0.013390 0.211636 -0.033468
					CHANNELS 3 Zrotation Yrotation Xrotation
					JOINT upperneck
					{
						OFFSET 0.010113 0.088937 0.050410
						CHANNELS 3 Zrotation Yrotation Xrotation
						End Site
						{
							OFFSET 0.000000 0.000000 0.000000
						}
					}
				}
				JOINT lclavicle
				{
					OFFSET 0.071702 0.114000 -0.018898
					CHANNELS 3 Zrotation Yrotation Xrotation
					JOINT lshoulder
					{
						OFFSET 0.122921 0.045205 -0.019046
						CHANNELS 3 Zrotation Yrotation Xrotation
						JOINT lelbow
						{
							OFFSET 0.255332 -0.015649 -0.022946
							CHANNELS 3 Zrotation Yrotation Xrotation
							JOINT lwrist
							{
								OFFSET 0.265709 0.012698 -0.007375
								CHANNELS 3 Zrotation Yrotation Xrotation
								End Site
								{
									OFFSET 0.000000 0.000000 0.000000
								}
							}
						}
					}
				}
				JOINT rclavicle
				{
					OFFSET -0.082954 0.112472 -0.023707
					CHANNELS 3 Zrotation Yrotation Xrotation
					JOINT rshoulder
					{
						OFFSET -0.113228 0.046853 -0.008472
						CHANNELS 3 Zrotation Yrotation Xrotation
						JOINT relbow
						{
							OFFSET -0.260127 -0.014369 -0.031269
							CHANNELS 3 Zrotation Yrotation Xrotation
							JOINT rwrist
							{
								OFFSET -0.269108 0.006794 -0.006027
								CHANNELS 3 Zrotation Yrotation Xrotation
								End Site
								{
									OFFSET 0.000000 0.000000 0.000000
								}
							}
						}
					}
				}
			}
		}
	}
}
MOTION
Frames: 10
Frame Time: 0.033333
1.013379 0.773995 0.985394 -84.781782 3.314439 91.969345 2.298922 -3.497868 -7.017306 -3.102574 -12.022569 14.239823 3.616208 11.193701 -20.847747 0.000000 -0.000000 0.000000 4.198571 3.198440 -10.363029 1.685541 1.825875 19.802941 3.996178 -7.314826 -15.683057 0.000000 -0.000000 0.000000 -2.782925 0.940276 10.655522 3.573733 -3.607008 1.801069 1.005540 -2.135441 4.633636 3.435761 -6.761283 -7.771534 5.911136 -15.901721 -12.526474 -21.669266 4.379085 1.878697 -49.998467 -2.591923 13.613112 -6.502844 -35.898933 21.801434 -0.409512 -3.767028 -6.568111 23.106121 -2.952278 -2.923458 57.292469 -3.832197 13.044657 -10.516787 32.079243 -0.719084 0.101081 0.927727 -7.233810 
1.020562 0.777126 0.978782 -83.972806 3.214199 92.712319 2.384958 -5.467518 -12.255309 -4.278081 -11.003936 21.845297 3.657400 12.091071 -22.606006 0.000000 -0.000000 0.000000 4.089290 4.057023 -14.554019 1.841169 0.849057 25.511466 3.956506 -8.388838 -17.735777 0.000000 -0.000000 0.000000 -2.540062 0.920211 13.322663 3.672599 -3.583116 0.635441 0.786363 -2.234619 5.063045 3.008103 -6.370618 -8.323411 6.268475 -16.304919 -12.854728 -20.850483 4.569363 2.002617 -48.663744 -2.019178 13.552513 -7.916166 -38.187324 22.660443 -0.698806 -4.036433 -7.488485 22.794972 -3.609264 -3.132062 56.656833 -4.962033 12.964127 -10.881644 34.996545 -0.566348 0.727479 1.044401 -7.204499 
1.027390 0.780319 0.964904 -82.656497 3.317652 93.141455 3.221452 -6.396276 -18.047806 -6.293208 -9.572599 30.597716 3.726611 11.984336 -24.654782 0.000000 -0.000000 0.000000 3.755006 4.380677 -19.024120 2.313763 -0.939241 32.561391 3.556516 -8.797673 -20.782851 0.000000 -0.000000 0.000000 -1.959788 0.563844 16.630560 3.826133 -3.613717 -0.467070 0.578364 -2.165713 5.114235 2.190749 -6.417964 -6.570157 8.219484 -16.249186 -14.707542 -19.721715 4.311251 2.620833 -48.045924 -1.229633 13.166941 -9.052915 -41.064171 23.626811 -0.255851 -3.599836 -8.918974 21.563273 -4.054369 -2.625372 56.771907 -6.345179 12.069813 -10.977693 39.117304 0.390443 0.746898 1.127453 -8.139527 
1.035949 0.784642 0.943292 -82.021601 3.332085 93.642949 4.295034 -6.178574 -24.521616 -8.314421 -7.168741 39.986826 4.057736 11.336333 -26.810058 0.000000 -0.000000 0.000000 2.898642 4.400134 -24.436300 2.599871 -3.239043 40.837307 3.502782 -8.286762 -23.996122 0.000000 -0.000000 0.000000 -1.686464 0.625607 19.909740 3.950196 -3.324595 -1.332075 0.348206 -1.959660 5.116541 1.246384 -6.200461 -4.409792 10.421625 -16.196209 -16.807524 -18.649184 3.811256 3.114295 -47.679881 -0.663652 12.680548 -9.760781 -43.869333 24.093689 0.470692 -3.149764 -10.340524 20.513294 -4.384384 -2.058493 56.778835 -7.507270 11.153516 -11.094169 43.856623 1.559448 0.948607 1.266490 -9.321490 
1.043701 0.789562 0.915354 -81.044325 3.250458 93.864731 5.423023 -5.424413 -31.032824 -9.939003 -4.163300 49.322477 4.833648 10.491365 -28.881680 0.000000 -0.000000 0.000000 1.942172 4.155050 -29.751191 2.772512 -5.349016 49.506501 3.118509 -8.097876 -27.495597 0.000000 -0.000000 0.000000 -1.719921 0.788962 23.008090 4.194839 -3.285020 -1.434745 0.214739 -1.491974 4.804352 0.111209 -5.952633 -1.424196 13.090714 -15.876848 -19.370190 -18.139911 2.793823 3.472855 -47.291137 -0.338397 12.083199 -9.843325 -46.267070 23.921513 1.485422 -2.174779 -11.242512 19.844010 -4.219948 -1.092260 56.583651 -8.531984 10.107859 -11.500161 49.125743 2.647536 0.810109 1.449018 -10.115026 
1.050485 0.794288 0.884282 -80.102208 2.951108 94.384172 6.306981 -4.964927 -38.192511 -11.085733 -1.175530 59.040676 5.254511 9.780682 -30.602953 0.000000 -0.000000 0.000000 0.940039 3.518908 -35.314677 2.350008 -7.214957 58.144196 2.684858 -7.998272 -31.002864 0.000000 -0.000000 0.000000 -1.844775 1.012122 25.812621 4.200571 -3.110080 -2.600338 -0.035620 -1.195006 4.636141 -0.556365 -5.981100 -0.460438 14.465407 -16.163265 -20.244953 -18.576138 2.225058 3.682553 -46.539389 -0.455786 11.263625 -9.271126 -47.480898 23.256427 2.321468 -1.841670 -10.958970 20.065434 -3.980343 -0.198375 55.953011 -9.254495 9.469764 -12.538969 53.646762 3.322386 0.572540 1.925638 -10.386312 
1.054322 0.798975 0.851995 -78.402896 2.804805 93.946330 7.484563 -5.453833 -43.603687 -11.614294 1.758633 67.477585 5.564952 9.283710 -32.815429 0.000000 -0.000000 0.000000 -0.008235 3.440648 -39.495807 1.329545 -9.452809 66.851045 2.410577 -8.620636 -34.653964 0.000000 -0.000000 0.000000 -1.981183 1.281365 28.901940 4.413908 -3.152843 -3.078185 0.075237 -1.033474 3.715038 -0.488281 -6.143680 2.619821 16.125718 -14.665253 -22.042601 -19.440419 0.917091 4.680315 -46.988330 -0.756557 9.849785 -5.857777 -48.095616 20.261967 3.649641 -1.397099 -10.341127 19.671065 -3.199709 1.052435 56.129825 -9.166196 8.563117 -13.827070 57.626400 4.414394 -0.087493 2.192084 -10.564061 
1.054054 0.803353 0.821365 -76.058378 2.493566 93.440479 7.906949 -6.506387 -47.513175 -12.076725 2.699452 74.127100 5.875094 9.152768 -35.278144 0.000000 -0.000000 0.000000 -0.793187 2.974142 -42.390249 0.214388 -10.960842 74.009016 2.844831 -9.650293 -37.980989 0.000000 -0.000000 0.000000 -1.952957 1.320653 31.658133 4.266542 -2.997176 -4.523233 -0.459199 -0.985911 4.653457 -0.420388 -6.725785 0.112991 16.451843 -18.218032 -19.634996 -20.764956 0.715517 3.540857 -46.808970 -1.968436 9.318578 -2.213335 -47.607583 15.883268 4.155691 -1.484048 -9.534134 21.141905 -2.225594 -0.026705 55.304035 -8.834009 9.564440 -16.444173 60.482435 2.944510 -0.498664 2.766611 -9.919383 
1.052319 0.807687 0.793505 -73.403411 2.252393 93.334054 8.683979 -8.277748 -51.195526 -11.090249 3.880974 79.660308 5.030397 7.124029 -38.392289 0.000000 -0.000000 0.000000 -1.938896 2.910810 -45.204916 -3.088585 -13.138319 80.969794 3.010566 -8.848532 -40.578222 0.000000 -0.000000 0.000000 -1.588008 1.194903 33.477945 3.248283 -3.192047 -6.481926 -0.585281 -0.175320 3.984453 -0.876344 -7.279348 4.703492 19.763221 -18.047044 -20.730900 -22.722017 -1.266547 4.178181 -47.737694 -0.788766 6.648693 4.630204 -47.979515 6.725415 1.635506 -0.826007 -5.022957 22.515244 0.612116 2.445633 54.635052 -7.626254 6.759640 -11.734553 63.177337 6.793273 -8.426330 2.270038 -8.837044 
1.048165 0.814367 0.774319 -70.425284 1.751414 92.932131 8.692978 -9.571886 -53.096295 -11.204254 3.954574 82.889392 5.364082 7.308647 -40.914965 0.000000 -0.000000 0.000000 -2.139377 2.474896 -46.617425 -5.464089 -13.901544 85.841206 3.265865 -10.123290 -42.254361 0.000000 -0.000000 0.000000 -1.914491 2.041917 35.374025 2.341047 -2.275443 -9.215689 -0.631703 0.360359 4.431303 -0.284401 -9.147339 5.927044 21.509680 -18.870869 -19.773130 -25.111284 -1.378556 4.632528 -48.156203 -1.951168 5.895665 9.704562 -48.114130 0.148270 5.121983 -0.739742 -4.975769 24.011252 2.438406 3.102635 53.927719 -4.930893 7.546322 -8.694238 64.181130 10.237853 -12.727273 3.036583 -7.836184 
